<mxfile host="app.diagrams.net" agent="Mozilla/5.0 (Windows NT 10.0; Win64; x64) AppleWebKit/537.36 (KHTML, like Gecko) Chrome/129.0.0.0 Safari/537.36" version="24.8.0">
  <diagram id="C5RBs43oDa-KdzZeNtuy" name="Page-1">
    <mxGraphModel dx="1793" dy="923" grid="1" gridSize="10" guides="1" tooltips="1" connect="1" arrows="1" fold="1" page="1" pageScale="1" pageWidth="827" pageHeight="1169" math="0" shadow="0">
      <root>
        <mxCell id="WIyWlLk6GJQsqaUBKTNV-0" />
        <mxCell id="WIyWlLk6GJQsqaUBKTNV-1" parent="WIyWlLk6GJQsqaUBKTNV-0" />
        <mxCell id="KpYd42S5S_keEVUDK0r6-4" value="" style="edgeStyle=orthogonalEdgeStyle;rounded=0;orthogonalLoop=1;jettySize=auto;html=1;" edge="1" parent="WIyWlLk6GJQsqaUBKTNV-1" source="KpYd42S5S_keEVUDK0r6-2" target="KpYd42S5S_keEVUDK0r6-3">
          <mxGeometry relative="1" as="geometry" />
        </mxCell>
        <mxCell id="KpYd42S5S_keEVUDK0r6-2" value="Request Recieved" style="rounded=0;whiteSpace=wrap;html=1;" vertex="1" parent="WIyWlLk6GJQsqaUBKTNV-1">
          <mxGeometry x="354" y="10" width="120" height="60" as="geometry" />
        </mxCell>
        <mxCell id="KpYd42S5S_keEVUDK0r6-6" value="" style="edgeStyle=orthogonalEdgeStyle;rounded=0;orthogonalLoop=1;jettySize=auto;html=1;" edge="1" parent="WIyWlLk6GJQsqaUBKTNV-1" source="KpYd42S5S_keEVUDK0r6-3" target="KpYd42S5S_keEVUDK0r6-5">
          <mxGeometry relative="1" as="geometry" />
        </mxCell>
        <mxCell id="KpYd42S5S_keEVUDK0r6-7" value="Yes" style="edgeLabel;html=1;align=center;verticalAlign=middle;resizable=0;points=[];" vertex="1" connectable="0" parent="KpYd42S5S_keEVUDK0r6-6">
          <mxGeometry x="-0.01" relative="1" as="geometry">
            <mxPoint as="offset" />
          </mxGeometry>
        </mxCell>
        <mxCell id="KpYd42S5S_keEVUDK0r6-9" value="" style="edgeStyle=orthogonalEdgeStyle;rounded=0;orthogonalLoop=1;jettySize=auto;html=1;" edge="1" parent="WIyWlLk6GJQsqaUBKTNV-1" source="KpYd42S5S_keEVUDK0r6-3" target="KpYd42S5S_keEVUDK0r6-8">
          <mxGeometry relative="1" as="geometry" />
        </mxCell>
        <mxCell id="KpYd42S5S_keEVUDK0r6-10" value="No" style="edgeLabel;html=1;align=center;verticalAlign=middle;resizable=0;points=[];" vertex="1" connectable="0" parent="KpYd42S5S_keEVUDK0r6-9">
          <mxGeometry x="-0.1771" y="1" relative="1" as="geometry">
            <mxPoint as="offset" />
          </mxGeometry>
        </mxCell>
        <mxCell id="KpYd42S5S_keEVUDK0r6-3" value="Authorization token available ?" style="rhombus;whiteSpace=wrap;html=1;rounded=0;" vertex="1" parent="WIyWlLk6GJQsqaUBKTNV-1">
          <mxGeometry x="346" y="110" width="136" height="130" as="geometry" />
        </mxCell>
        <mxCell id="KpYd42S5S_keEVUDK0r6-12" value="" style="edgeStyle=orthogonalEdgeStyle;rounded=0;orthogonalLoop=1;jettySize=auto;html=1;" edge="1" parent="WIyWlLk6GJQsqaUBKTNV-1" source="KpYd42S5S_keEVUDK0r6-5" target="KpYd42S5S_keEVUDK0r6-11">
          <mxGeometry relative="1" as="geometry" />
        </mxCell>
        <mxCell id="KpYd42S5S_keEVUDK0r6-5" value="Extract Token" style="whiteSpace=wrap;html=1;rounded=0;" vertex="1" parent="WIyWlLk6GJQsqaUBKTNV-1">
          <mxGeometry x="138" y="145" width="120" height="60" as="geometry" />
        </mxCell>
        <mxCell id="KpYd42S5S_keEVUDK0r6-21" value="" style="edgeStyle=orthogonalEdgeStyle;rounded=0;orthogonalLoop=1;jettySize=auto;html=1;" edge="1" parent="WIyWlLk6GJQsqaUBKTNV-1" source="KpYd42S5S_keEVUDK0r6-8" target="KpYd42S5S_keEVUDK0r6-20">
          <mxGeometry relative="1" as="geometry" />
        </mxCell>
        <mxCell id="KpYd42S5S_keEVUDK0r6-8" value="Response sent 401, Unauthorized" style="whiteSpace=wrap;html=1;rounded=0;" vertex="1" parent="WIyWlLk6GJQsqaUBKTNV-1">
          <mxGeometry x="354" y="355" width="120" height="60" as="geometry" />
        </mxCell>
        <mxCell id="KpYd42S5S_keEVUDK0r6-13" value="" style="edgeStyle=orthogonalEdgeStyle;rounded=0;orthogonalLoop=1;jettySize=auto;html=1;" edge="1" parent="WIyWlLk6GJQsqaUBKTNV-1" source="KpYd42S5S_keEVUDK0r6-11" target="KpYd42S5S_keEVUDK0r6-8">
          <mxGeometry relative="1" as="geometry">
            <Array as="points">
              <mxPoint x="304" y="328" />
              <mxPoint x="414" y="328" />
            </Array>
          </mxGeometry>
        </mxCell>
        <mxCell id="KpYd42S5S_keEVUDK0r6-14" value="No" style="edgeLabel;html=1;align=center;verticalAlign=middle;resizable=0;points=[];" vertex="1" connectable="0" parent="KpYd42S5S_keEVUDK0r6-13">
          <mxGeometry x="-0.054" y="-1" relative="1" as="geometry">
            <mxPoint as="offset" />
          </mxGeometry>
        </mxCell>
        <mxCell id="KpYd42S5S_keEVUDK0r6-16" value="" style="edgeStyle=orthogonalEdgeStyle;rounded=0;orthogonalLoop=1;jettySize=auto;html=1;" edge="1" parent="WIyWlLk6GJQsqaUBKTNV-1" source="KpYd42S5S_keEVUDK0r6-11" target="KpYd42S5S_keEVUDK0r6-15">
          <mxGeometry relative="1" as="geometry" />
        </mxCell>
        <mxCell id="KpYd42S5S_keEVUDK0r6-17" value="Yes" style="edgeLabel;html=1;align=center;verticalAlign=middle;resizable=0;points=[];" vertex="1" connectable="0" parent="KpYd42S5S_keEVUDK0r6-16">
          <mxGeometry x="-0.0291" relative="1" as="geometry">
            <mxPoint as="offset" />
          </mxGeometry>
        </mxCell>
        <mxCell id="KpYd42S5S_keEVUDK0r6-11" value="Token Extracted ?" style="rhombus;whiteSpace=wrap;html=1;rounded=0;" vertex="1" parent="WIyWlLk6GJQsqaUBKTNV-1">
          <mxGeometry x="142" y="275" width="112" height="105" as="geometry" />
        </mxCell>
        <mxCell id="KpYd42S5S_keEVUDK0r6-19" value="" style="edgeStyle=orthogonalEdgeStyle;rounded=0;orthogonalLoop=1;jettySize=auto;html=1;" edge="1" parent="WIyWlLk6GJQsqaUBKTNV-1" source="KpYd42S5S_keEVUDK0r6-15" target="KpYd42S5S_keEVUDK0r6-18">
          <mxGeometry relative="1" as="geometry" />
        </mxCell>
        <mxCell id="KpYd42S5S_keEVUDK0r6-15" value="Valid Token" style="whiteSpace=wrap;html=1;rounded=0;" vertex="1" parent="WIyWlLk6GJQsqaUBKTNV-1">
          <mxGeometry x="138" y="482.5" width="120" height="60" as="geometry" />
        </mxCell>
        <mxCell id="KpYd42S5S_keEVUDK0r6-22" style="edgeStyle=orthogonalEdgeStyle;rounded=0;orthogonalLoop=1;jettySize=auto;html=1;exitX=1;exitY=0.5;exitDx=0;exitDy=0;entryX=0.5;entryY=1;entryDx=0;entryDy=0;" edge="1" parent="WIyWlLk6GJQsqaUBKTNV-1" source="KpYd42S5S_keEVUDK0r6-18" target="KpYd42S5S_keEVUDK0r6-24">
          <mxGeometry relative="1" as="geometry">
            <mxPoint x="410" y="659" as="targetPoint" />
          </mxGeometry>
        </mxCell>
        <mxCell id="KpYd42S5S_keEVUDK0r6-23" value="No" style="edgeLabel;html=1;align=center;verticalAlign=middle;resizable=0;points=[];" vertex="1" connectable="0" parent="KpYd42S5S_keEVUDK0r6-22">
          <mxGeometry x="-0.3914" y="-2" relative="1" as="geometry">
            <mxPoint as="offset" />
          </mxGeometry>
        </mxCell>
        <mxCell id="KpYd42S5S_keEVUDK0r6-27" value="" style="edgeStyle=orthogonalEdgeStyle;rounded=0;orthogonalLoop=1;jettySize=auto;html=1;" edge="1" parent="WIyWlLk6GJQsqaUBKTNV-1" source="KpYd42S5S_keEVUDK0r6-18" target="KpYd42S5S_keEVUDK0r6-26">
          <mxGeometry relative="1" as="geometry" />
        </mxCell>
        <mxCell id="KpYd42S5S_keEVUDK0r6-28" value="Yes" style="edgeLabel;html=1;align=center;verticalAlign=middle;resizable=0;points=[];" vertex="1" connectable="0" parent="KpYd42S5S_keEVUDK0r6-27">
          <mxGeometry x="-0.2184" y="-1" relative="1" as="geometry">
            <mxPoint as="offset" />
          </mxGeometry>
        </mxCell>
        <mxCell id="KpYd42S5S_keEVUDK0r6-18" value="Valid Token?" style="rhombus;whiteSpace=wrap;html=1;rounded=0;" vertex="1" parent="WIyWlLk6GJQsqaUBKTNV-1">
          <mxGeometry x="137" y="600" width="122" height="117.5" as="geometry" />
        </mxCell>
        <mxCell id="KpYd42S5S_keEVUDK0r6-20" value="End Request" style="shape=parallelogram;perimeter=parallelogramPerimeter;whiteSpace=wrap;html=1;fixedSize=1;rounded=0;" vertex="1" parent="WIyWlLk6GJQsqaUBKTNV-1">
          <mxGeometry x="354" y="495" width="120" height="60" as="geometry" />
        </mxCell>
        <mxCell id="KpYd42S5S_keEVUDK0r6-25" value="" style="edgeStyle=orthogonalEdgeStyle;rounded=0;orthogonalLoop=1;jettySize=auto;html=1;" edge="1" parent="WIyWlLk6GJQsqaUBKTNV-1" source="KpYd42S5S_keEVUDK0r6-24" target="KpYd42S5S_keEVUDK0r6-20">
          <mxGeometry relative="1" as="geometry" />
        </mxCell>
        <mxCell id="KpYd42S5S_keEVUDK0r6-24" value="403 Request forbidden" style="rounded=0;whiteSpace=wrap;html=1;" vertex="1" parent="WIyWlLk6GJQsqaUBKTNV-1">
          <mxGeometry x="331" y="600" width="166" height="25" as="geometry" />
        </mxCell>
        <mxCell id="KpYd42S5S_keEVUDK0r6-30" value="" style="edgeStyle=orthogonalEdgeStyle;rounded=0;orthogonalLoop=1;jettySize=auto;html=1;" edge="1" parent="WIyWlLk6GJQsqaUBKTNV-1" source="KpYd42S5S_keEVUDK0r6-26" target="KpYd42S5S_keEVUDK0r6-29">
          <mxGeometry relative="1" as="geometry" />
        </mxCell>
        <mxCell id="KpYd42S5S_keEVUDK0r6-26" value="Add to user request" style="whiteSpace=wrap;html=1;rounded=0;" vertex="1" parent="WIyWlLk6GJQsqaUBKTNV-1">
          <mxGeometry x="138" y="790" width="120" height="60" as="geometry" />
        </mxCell>
        <mxCell id="KpYd42S5S_keEVUDK0r6-32" value="" style="edgeStyle=orthogonalEdgeStyle;rounded=0;orthogonalLoop=1;jettySize=auto;html=1;" edge="1" parent="WIyWlLk6GJQsqaUBKTNV-1" source="KpYd42S5S_keEVUDK0r6-29" target="KpYd42S5S_keEVUDK0r6-31">
          <mxGeometry relative="1" as="geometry" />
        </mxCell>
        <mxCell id="KpYd42S5S_keEVUDK0r6-29" value="Pass to next middleware" style="whiteSpace=wrap;html=1;rounded=0;" vertex="1" parent="WIyWlLk6GJQsqaUBKTNV-1">
          <mxGeometry x="138" y="893.75" width="120" height="60" as="geometry" />
        </mxCell>
        <mxCell id="KpYd42S5S_keEVUDK0r6-31" value="Continue to route handler" style="whiteSpace=wrap;html=1;rounded=0;" vertex="1" parent="WIyWlLk6GJQsqaUBKTNV-1">
          <mxGeometry x="138" y="1003.75" width="120" height="60" as="geometry" />
        </mxCell>
      </root>
    </mxGraphModel>
  </diagram>
</mxfile>
